<?xml version="1.0" ?>
<svg data-name="Layer 1" id="Layer_1" fill="#800020" viewBox="0 0 512 512" xmlns="http://www.w3.org/2000/svg"><path d="M504.33,449c-1.77-6.8-44.73-167.52-164.21-232.91-44.65-24.43-96.2-41.45-146-57.91C115,132.08,40.29,107.42,26,59.65a6.22,6.22,0,0,0-12,.24c-.9,3.5-21.53,86.38,15.65,137.94,16.8,23.29,42.66,36.33,76.85,38.75,2.88.2,5.61.42,8.44.63,4.15,15.16,22.14,60.63,89.61,66,12.25,1,24.17,2.25,35.9,3.65,4.92,14.16,26.84,57.6,114,73.07,62.78,11.14,114,31.18,131.21,51.25,4.39,12.68,6.53,20.62,6.63,21a6.2,6.2,0,0,0,6,4.65,6.56,6.56,0,0,0,1.57-.2A6.23,6.23,0,0,0,504.33,449ZM39.74,190.58C16,157.73,18.75,108.52,22.55,81.83c26.07,41.43,92.34,63.31,167.62,88.16,49.32,16.29,100.33,33.13,144,57,31.46,17.21,57.53,41.8,78.8,68.44C372,269.38,305.58,238.22,107.35,224.18,77,222,54.28,210.73,39.74,190.58Zm88.36,47.64c202.38,16.42,254.36,51.46,292.64,77.28,4.36,2.95,8.58,5.8,12.84,8.51,5.09,7.77,9.81,15.55,14.18,23.22-38.37-19.78-115.69-41.42-201.19-52.15-.14,0-.29,0-.44-.06-13.39-1.67-26.94-3.13-40.61-4.22C150.49,286.43,133.21,253.53,128.1,238.22ZM356.63,367.68c-70.83-12.57-94.51-43.79-102-59.11,110.24,14.87,192.77,46.27,205.61,62,6.75,13.55,12.29,26.25,16.81,37.5C451.1,391.49,407.94,376.78,356.63,367.68Z"/></svg>