<svg xmlns="http://www.w3.org/2000/svg" viewBox="0 0 512 512" id="json-file"><g><g><g><path fill="#f5f1ea" d="M390 506H92.4C74 506 59 491.1 59 472.6V39.4C59 20.9 74 6 92.4 6H390c18.4 0 33.4 14.9 33.4 33.4v433.2c0 18.5-14.9 33.4-33.4 33.4z"></path><path fill="#ec3f36" d="M383.4 256H99.1c-2.6 0-4.6-2.1-4.6-4.6V242c0-2.6 2.1-4.6 4.6-4.6h284.3c2.6 0 4.6 2.1 4.6 4.6v9.4c0 2.5-2.1 4.6-4.6 4.6zM383.4 295.7H99.1c-2.6 0-4.6-2.1-4.6-4.6v-9.4c0-2.6 2.1-4.6 4.6-4.6h284.3c2.6 0 4.6 2.1 4.6 4.6v9.4c0 2.6-2.1 4.6-4.6 4.6zM383.4 335.5H99.1c-2.6 0-4.6-2.1-4.6-4.6v-9.4c0-2.6 2.1-4.6 4.6-4.6h284.3c2.6 0 4.6 2.1 4.6 4.6v9.4c0 2.5-2.1 4.6-4.6 4.6zM383.4 375.2H99.1c-2.6 0-4.6-2.1-4.6-4.6v-9.4c0-2.6 2.1-4.6 4.6-4.6h284.3c2.6 0 4.6 2.1 4.6 4.6v9.4c0 2.6-2.1 4.6-4.6 4.6zM383.4 415H99.1c-2.6 0-4.6-2.1-4.6-4.6V401c0-2.6 2.1-4.6 4.6-4.6h284.3c2.6 0 4.6 2.1 4.6 4.6v9.4c0 2.5-2.1 4.6-4.6 4.6zM383.4 454.7H99.1c-2.6 0-4.6-2.1-4.6-4.6v-9.4c0-2.6 2.1-4.6 4.6-4.6h284.3c2.6 0 4.6 2.1 4.6 4.6v9.4c0 2.5-2.1 4.6-4.6 4.6z"></path></g><g><path fill="#ec3f36" d="M453 195.8H155.2c-8.9 0-14.6-9.6-10.3-17.4l57.8-105.9c2.1-3.8 6-6.1 10.3-6.1h228.2c6.5 0 11.8 5.3 11.8 11.8v117.6z"></path><path fill="#a82324" d="M423.4 195.8v22.9l29.6-22.9z"></path></g></g><g><path fill="#fff" d="M272.7 112.8v38.5c0 4.7-1.3 8.4-3.8 10.9s-6.1 3.9-10.6 3.9c-1 0-2 0-2.8-.1-.9-.1-1.8-.2-2.8-.5l.5-8.9c.7.1 1.3.2 1.7.3.5.1 1.1.1 1.8.1 1.3 0 2.3-.5 3-1.4.7-1 1-2.4 1-4.2v-38.5h12zm-.2-8.8h-11.9v-7.9h11.9v7.9zM304.2 140.1c0-.9-.5-1.8-1.6-2.5s-3-1.4-5.8-2c-4.4-.9-7.7-2.2-10-4-2.2-1.8-3.4-4.3-3.4-7.5 0-3.3 1.4-6.2 4.2-8.5 2.8-2.3 6.6-3.5 11.4-3.5 5 0 9.1 1.1 12.1 3.4s4.4 5.2 4.3 8.7l-.1.2h-11.5c0-1.5-.4-2.6-1.1-3.4-.7-.8-2-1.2-3.7-1.2-1.2 0-2.3.3-3.1 1-.8.7-1.3 1.5-1.3 2.6 0 1 .5 1.9 1.5 2.6 1 .7 2.9 1.3 5.9 1.9 4.6.9 8.1 2.3 10.3 4.1 2.2 1.8 3.3 4.4 3.3 7.7 0 3.4-1.5 6.2-4.5 8.4s-7 3.3-12 3.3c-5.2 0-9.2-1.3-12.3-3.9-3-2.6-4.4-5.5-4.3-8.8l.1-.2h10.7c0 1.8.6 3.1 1.6 3.9 1 .8 2.5 1.2 4.4 1.2 1.6 0 2.8-.3 3.6-.9.9-.6 1.3-1.4 1.3-2.6zM324.6 131.5c0-5.7 1.6-10.3 4.8-13.9 3.2-3.6 7.7-5.4 13.5-5.4s10.3 1.8 13.5 5.4c3.2 3.6 4.8 8.2 4.8 13.9v.7c0 5.7-1.6 10.4-4.8 14-3.2 3.6-7.7 5.4-13.5 5.4s-10.3-1.8-13.6-5.4c-3.2-3.6-4.8-8.2-4.8-14v-.7zm11.8.7c0 3.2.5 5.7 1.5 7.5 1 1.8 2.7 2.7 5.1 2.7 2.3 0 4-.9 5-2.7 1-1.8 1.5-4.3 1.5-7.5v-.7c0-3.1-.5-5.6-1.5-7.4-1-1.9-2.7-2.8-5-2.8s-4 .9-5 2.8-1.5 4.3-1.5 7.4v.7zM382.4 112.8l.5 5.3c1.2-1.9 2.8-3.4 4.6-4.4 1.8-1.1 3.9-1.6 6.1-1.6 3.7 0 6.6 1.3 8.7 3.8 2.1 2.5 3.1 6.5 3.1 12v22.8h-11.8v-22.9c0-2.4-.4-4.1-1.2-5.1-.8-1-1.9-1.5-3.4-1.5-1.3 0-2.4.2-3.4.7-1 .4-1.8 1.1-2.5 1.9v27h-11.8v-37.9h11.1z"></path></g></g></svg>