<svg xmlns="http://www.w3.org/2000/svg" enable-background="new 0 0 512 512" viewBox="0 0 512 512" id="responsive"><polygon fill="#76B3FF" points="312 424 200 424 232 328 280 328"></polygon><path fill="#76B3FF" d="M457,344H55c-8.284,0-15-6.716-15-15V87c0-8.284,6.716-15,15-15h402c8.284,0,15,6.716,15,15v242
	C472,337.284,465.284,344,457,344z"></path><path fill="#476C99" d="M352 440H160v0c0-17.673 14.327-32 32-32h128C337.673 408 352 422.327 352 440L352 440zM457 344H55c-8.284 0-15-6.716-15-15v-33h432v33C472 337.284 465.284 344 457 344z"></path><path fill="#FFDA7D" d="M280,328h-48c-4.418,0-8-3.582-8-8s3.582-8,8-8h48c4.418,0,8,3.582,8,8S284.418,328,280,328z"></path><path fill="#2E4664" d="M158.765,440H33.235c-5.101,0-9.235-4.135-9.235-9.235V225.235c0-5.101,4.135-9.235,9.235-9.235h125.529
	c5.101,0,9.235,4.135,9.235,9.235v205.529C168,435.865,163.865,440,158.765,440z"></path><polygon fill="#76B3FF" points="144 408 48 408 48 240 72 240 80 248 112 248 120 240 144 240"></polygon><path fill="#FFDA7D" d="M264 136H112c-4.418 0-8-3.582-8-8s3.582-8 8-8h152c4.418 0 8 3.582 8 8S268.418 136 264 136zM264 168H72c-4.418 0-8-3.582-8-8s3.582-8 8-8h192c4.418 0 8 3.582 8 8S268.418 168 264 168zM264 200H72c-4.418 0-8-3.582-8-8s3.582-8 8-8h192c4.418 0 8 3.582 8 8S268.418 200 264 200zM232 232h-32c-4.418 0-8-3.582-8-8s3.582-8 8-8h32c4.418 0 8 3.582 8 8S236.418 232 232 232z"></path><path fill="#C35B6D" d="M232,264h-32c-4.418,0-8-3.582-8-8s3.582-8,8-8h32c4.418,0,8,3.582,8,8S236.418,264,232,264z"></path><path fill="#FFDA7D" d="M120 288H88c-4.418 0-8-3.582-8-8s3.582-8 8-8h32c4.418 0 8 3.582 8 8S124.418 288 120 288zM120 320H72c-4.418 0-8-3.582-8-8s3.582-8 8-8h48c4.418 0 8 3.582 8 8S124.418 320 120 320zM120 352H72c-4.418 0-8-3.582-8-8s3.582-8 8-8h48c4.418 0 8 3.582 8 8S124.418 352 120 352z"></path><path fill="#C35B6D" d="M88,384H72c-4.418,0-8-3.582-8-8s3.582-8,8-8h16c4.418,0,8,3.582,8,8S92.418,384,88,384z"></path><path fill="#2E4664" d="M473,440H279c-8.284,0-15-6.716-15-15V119c0-8.284,6.716-15,15-15h194c8.284,0,15,6.716,15,15v306
	C488,433.284,481.284,440,473,440z"></path><polygon fill="#76B3FF" points="464 408 288 408 288 128 344 128 352 136 400 136 408 128 464 128"></polygon><circle cx="376" cy="424" r="16" fill="#FFDA7D"></circle><circle cx="96" cy="424" r="16" fill="#FFDA7D"></circle><path fill="#FFDA7D" d="M432 200h-56c-4.418 0-8-3.582-8-8s3.582-8 8-8h56c4.418 0 8 3.582 8 8S436.418 200 432 200zM432 232H320c-4.418 0-8-3.582-8-8s3.582-8 8-8h112c4.418 0 8 3.582 8 8S436.418 232 432 232zM432 264H320c-4.418 0-8-3.582-8-8s3.582-8 8-8h112c4.418 0 8 3.582 8 8S436.418 264 432 264zM432 296H320c-4.418 0-8-3.582-8-8s3.582-8 8-8h112c4.418 0 8 3.582 8 8S436.418 296 432 296z"></path><path fill="#C35B6D" d="M376,328h-56c-4.418,0-8-3.582-8-8s3.582-8,8-8h56c4.418,0,8,3.582,8,8S380.418,328,376,328z"></path><path d="M480,97.093V87c0-12.683-10.317-23-23-23H55c-12.683,0-23,10.317-23,23v121.062c-8.927,0.638-16,8.086-16,17.173v205.529
		C16,440.269,23.731,448,33.235,448H473c12.683,0,23-10.317,23-23V119C496,108.758,489.27,100.062,480,97.093z M88,424
		c0-4.411,3.589-8,8-8s8,3.589,8,8s-3.589,8-8,8S88,428.411,88,424z M56,400V248h12.687l5.656,5.657
		C75.844,255.157,77.878,256,80,256h32c2.122,0,4.156-0.843,5.657-2.343l5.656-5.657H136v152H56z M160,430.765
		c0,0.681-0.555,1.235-1.235,1.235h-40.141c0.888-2.504,1.376-5.195,1.376-8s-0.488-5.496-1.376-8H144c4.418,0,8-3.582,8-8V240
		c0-4.418-3.582-8-8-8h-24c-2.122,0-4.156,0.843-5.657,2.343L108.687,240H83.313l-5.656-5.657C76.156,232.843,74.122,232,72,232H48
		c-4.418,0-8,3.582-8,8v168c0,4.418,3.582,8,8,8h25.376c-0.888,2.504-1.376,5.195-1.376,8s0.488,5.496,1.376,8H33.235
		c-0.681,0-1.235-0.555-1.235-1.235V225.235c0-0.681,0.555-1.235,1.235-1.235h125.529c0.681,0,1.235,0.555,1.235,1.235V430.765z
		 M175.938,432c0.029-0.41,0.062-0.818,0.062-1.235v-8.654c4.404-3.949,10.034-6.11,16-6.11h64v9c0,2.44,0.385,4.792,1.093,7
		H175.938z M232,328h24v8h-80v-32h80v8h-24c-4.418,0-8,3.582-8,8S227.582,328,232,328z M256,352v48h-39.567l16-48H256z M215.567,352
		l-16,48H192c-5.599,0-11.02,1.144-16,3.317V352H215.567z M256,119v1H112c-4.418,0-8,3.582-8,8s3.582,8,8,8h144v16H72
		c-4.418,0-8,3.582-8,8s3.582,8,8,8h184v16H72c-4.418,0-8,3.582-8,8s3.582,8,8,8h184v88h-80v-62.765
		c0-9.504-7.731-17.235-17.235-17.235H48V87c0-3.859,3.141-7,7-7h402c3.859,0,7,3.141,7,7v9H279C266.317,96,256,106.317,256,119z
		 M376,432c-4.411,0-8-3.589-8-8s3.589-8,8-8s8,3.589,8,8S380.411,432,376,432z M296,400V136h44.687l5.656,5.657
		c1.501,1.5,3.535,2.343,5.657,2.343h48c2.122,0,4.156-0.843,5.657-2.343l5.656-5.657H456v264H296z M480,425c0,3.859-3.141,7-7,7
		h-74.386c0.891-2.504,1.386-5.194,1.386-8c0-2.805-0.486-5.497-1.375-8H464c4.418,0,8-3.582,8-8V128c0-4.418-3.582-8-8-8h-56
		c-2.122,0-4.156,0.843-5.657,2.343L396.687,128h-41.373l-5.656-5.657c-1.501-1.5-3.535-2.343-5.657-2.343h-56c-4.418,0-8,3.582-8,8
		v280c0,4.418,3.582,8,8,8h65.379c-0.889,2.504-1.379,5.195-1.379,8c0,2.806,0.494,5.496,1.383,8H279c-3.859,0-7-3.141-7-7V119
		c0-3.859,3.141-7,7-7h194c3.859,0,7,3.141,7,7V425z"></path><path d="M200 232h32c4.418 0 8-3.582 8-8s-3.582-8-8-8h-32c-4.418 0-8 3.582-8 8S195.582 232 200 232zM200 264h32c4.418 0 8-3.582 8-8s-3.582-8-8-8h-32c-4.418 0-8 3.582-8 8S195.582 264 200 264zM120 272H88c-4.418 0-8 3.582-8 8s3.582 8 8 8h32c4.418 0 8-3.582 8-8S124.418 272 120 272zM120 304H72c-4.418 0-8 3.582-8 8s3.582 8 8 8h48c4.418 0 8-3.582 8-8S124.418 304 120 304zM120 336H72c-4.418 0-8 3.582-8 8s3.582 8 8 8h48c4.418 0 8-3.582 8-8S124.418 336 120 336zM432 184h-56c-4.418 0-8 3.582-8 8s3.582 8 8 8h56c4.418 0 8-3.582 8-8S436.418 184 432 184zM432 216H320c-4.418 0-8 3.582-8 8s3.582 8 8 8h112c4.418 0 8-3.582 8-8S436.418 216 432 216zM432 248H320c-4.418 0-8 3.582-8 8s3.582 8 8 8h112c4.418 0 8-3.582 8-8S436.418 248 432 248zM432 280H320c-4.418 0-8 3.582-8 8s3.582 8 8 8h112c4.418 0 8-3.582 8-8S436.418 280 432 280zM88 368H72c-4.418 0-8 3.582-8 8s3.582 8 8 8h16c4.418 0 8-3.582 8-8S92.418 368 88 368zM376 312h-56c-4.418 0-8 3.582-8 8s3.582 8 8 8h56c4.418 0 8-3.582 8-8S380.418 312 376 312z"></path></svg>